HIERARCHY
ROOT Hips
{
	OFFSET -0.179506 -22.333345 2.821913
	CHANNELS 6 Xposition Yposition Zposition Zrotation Yrotation Xrotation 
	JOINT LeftUpLeg
	{
		OFFSET 6.951974 -9.140623 -0.681533
		CHANNELS 3 Zrotation Yrotation Xrotation
		JOINT LeftLeg
		{
			OFFSET 3.427654 -37.519855 -0.449580
			CHANNELS 3 Zrotation Yrotation Xrotation
			JOINT LeftFoot
			{
				OFFSET -1.359570 -39.796059 -4.369333
				CHANNELS 3 Zrotation Yrotation Xrotation
				JOINT LeftToe
				{
					OFFSET 2.635814 -5.579078 11.928840
					CHANNELS 3 Zrotation Yrotation Xrotation
					End Site
					{
						OFFSET 0.000000 0.000000 0.000000
					}
				}
			}
		}
	}
	JOINT RightUpLeg
	{
		OFFSET -6.767048 -9.052170 -0.431982
		CHANNELS 3 Zrotation Yrotation Xrotation
		JOINT RightLeg
		{
			OFFSET -3.829005 -38.256897 -0.885003
			CHANNELS 3 Zrotation Yrotation Xrotation
			JOINT RightFoot
			{
				OFFSET 1.577377 -39.841461 -4.231180
				CHANNELS 3 Zrotation Yrotation Xrotation
				JOINT RightToe
				{
					OFFSET -2.537174 -4.814398 12.334795
					CHANNELS 3 Zrotation Yrotation Xrotation
					End Site
					{
						OFFSET 0.000000 0.000000 0.000000
					}
				}
			}
		}
	}
	JOINT Spine
	{
		OFFSET -0.253288 10.896323 -2.669631
		CHANNELS 3 Zrotation Yrotation Xrotation
		JOINT Spine1
		{
			OFFSET 0.548704 13.518043 0.109247
			CHANNELS 3 Zrotation Yrotation Xrotation
			JOINT Spine2
			{
				OFFSET 0.145701 5.292222 2.542457
				CHANNELS 3 Zrotation Yrotation Xrotation
				JOINT Neck
				{
					OFFSET -0.277840 21.387037 -4.285703
					CHANNELS 3 Zrotation Yrotation Xrotation
					JOINT Head
					{
						OFFSET 0.515184 6.496960 5.134897
						CHANNELS 3 Zrotation Yrotation Xrotation
						End Site
						{
							OFFSET 0.000000 0.000000 0.000000
						}
					}
				}
				JOINT LeftShoulder
				{
					OFFSET 7.884473 12.174932 -3.408961
					CHANNELS 3 Zrotation Yrotation Xrotation
					JOINT LeftArm
					{
						OFFSET 9.097692 3.046888 -0.886815
						CHANNELS 3 Zrotation Yrotation Xrotation
						JOINT LeftForeArm
						{
							OFFSET 25.961220 -1.277207 -2.745643
							CHANNELS 3 Zrotation Yrotation Xrotation
							JOINT LeftHand
							{
								OFFSET 24.923361 0.898606 -0.117091
								CHANNELS 3 Zrotation Yrotation Xrotation
								End Site
								{
									OFFSET 0.000000 0.000000 0.000000
								}
							}
						}
					}
				}
				JOINT RightShoulder
				{
					OFFSET -8.175920 11.883285 -3.861528
					CHANNELS 3 Zrotation Yrotation Xrotation
					JOINT RightArm
					{
						OFFSET -9.601238 3.255117 -0.914307
						CHANNELS 3 Zrotation Yrotation Xrotation
						JOINT RightForeArm
						{
							OFFSET -25.374195 -1.332924 -2.140099
							CHANNELS 3 Zrotation Yrotation Xrotation
							JOINT RightHand
							{
								OFFSET -25.529810 0.777228 -0.555919
								CHANNELS 3 Zrotation Yrotation Xrotation
								End Site
								{
									OFFSET 0.000000 0.000000 0.000000
								}
							}
						}
					}
				}
			}
		}
	}
}
MOTION
Frames: 18
Frame Time: 0.033333
-13.406763 -68.301613 81.042412 -124.977911 0.302826 83.969592 29.990728 14.491807 1.542564 -13.300580 -0.269116 44.294681 -2.265390 11.193670 -39.110392 nan nan nan -22.897396 -14.349723 -31.027487 2.106002 -12.597841 50.804739 3.043400 -4.809501 -16.978333 nan nan nan -4.218949 -3.520642 11.730326 5.997499 -8.547214 17.538297 1.236552 -1.850347 -10.537460 -2.903965 2.057717 14.556043 2.907400 -6.242346 16.654474 -23.880016 -34.054122 11.598713 -48.682932 -45.739852 27.736619 -4.467092 -61.197227 27.246618 -10.568865 -6.269637 15.360334 30.869663 31.140075 10.575093 31.963294 14.235743 11.590118 -10.210825 43.991787 12.723804 2.873284 7.924317 14.770924 
-13.378983 -68.068924 80.998306 -124.657736 0.371074 84.186127 30.132930 14.417339 1.272807 -13.302086 -0.443436 44.162568 -2.246513 11.220376 -38.998053 nan nan nan -22.933925 -14.543061 -31.094291 2.167595 -12.946775 51.118451 3.044531 -4.763210 -17.223654 nan nan nan -4.226559 -3.611027 11.398075 6.095067 -8.594995 17.779063 1.339597 -1.922653 -10.474612 -3.097706 1.846159 14.509968 2.993106 -6.300792 16.556926 -23.809215 -34.147866 11.641906 -47.953319 -46.446391 27.115102 -4.726229 -61.988321 26.996512 -10.871940 -6.004059 15.377297 30.432720 30.895628 10.192336 31.612662 14.136956 10.968560 -9.845205 45.860382 12.629529 2.947460 7.572757 14.636267 
-13.333638 -67.787521 80.985847 -124.478788 0.318930 84.195123 30.260039 14.372417 1.440507 -13.373991 -0.778945 43.802004 -2.244072 11.258579 -38.797105 nan nan nan -22.982803 -14.646390 -31.036115 2.192756 -13.089811 51.477536 2.990867 -4.764034 -17.551039 nan nan nan -4.342714 -3.672115 11.560663 6.113087 -8.634877 17.551819 1.383592 -1.917313 -10.260819 -3.191033 1.681374 14.382613 3.103720 -6.333408 16.627171 -23.557041 -34.139068 11.550433 -47.233834 -47.194171 26.519714 -5.106437 -62.893453 26.929740 -11.313147 -5.576698 14.889387 30.166592 30.687013 9.950983 30.975076 13.970290 10.418453 -9.057142 48.082174 12.606729 3.422006 6.881533 14.311827 
-13.236882 -67.481110 80.993309 -124.349598 0.275896 84.277481 30.421050 14.416706 1.561041 -13.383474 -1.087734 43.403878 -2.309685 11.249119 -38.527882 nan nan nan -22.946465 -14.644208 -31.075207 2.183501 -13.251526 51.815976 2.953369 -4.810010 -18.002919 nan nan nan -4.458473 -3.734669 11.825005 6.169966 -8.668130 17.131805 1.449681 -1.899461 -10.036904 -3.332420 1.630421 14.263583 3.183898 -6.319614 16.548862 -23.231480 -33.916131 11.222668 -46.775502 -47.991549 26.213262 -5.377787 -63.793256 27.038518 -11.590774 -5.268202 14.362491 29.934597 30.320324 9.621657 30.403884 13.877835 9.983574 -8.188085 50.551394 13.025135 3.903452 6.553736 13.921627 
-13.141868 -67.133316 81.011040 -124.184353 0.298103 84.487518 30.664302 14.541046 1.547272 -13.331094 -1.282396 42.975587 -2.434963 11.074287 -38.246816 nan nan nan -22.857370 -14.656188 -31.163384 2.162504 -13.580688 52.095333 2.923695 -4.766727 -18.494581 nan nan nan -4.514112 -3.777598 11.860163 6.287943 -8.669391 16.935292 1.560966 -1.929460 -9.991255 -3.380595 1.725112 14.227260 3.102063 -6.529175 16.368992 -22.891978 -33.681383 10.860266 -46.673684 -48.768100 26.086174 -4.957720 -64.693389 26.526966 -12.094150 -5.185989 14.416856 29.636527 29.898282 9.391757 30.068088 13.738672 9.561032 -8.201193 52.969433 12.712375 4.758405 6.771943 13.607415 
-13.053161 -66.752983 81.038704 -124.040531 0.274679 84.739240 30.857409 14.624010 1.559858 -13.301293 -1.376801 42.442048 -2.577210 10.815316 -37.918287 nan nan nan -22.803940 -14.743230 -31.296377 2.161492 -13.939538 52.370122 2.919874 -4.672941 -18.919786 nan nan nan -4.558544 -3.755287 11.810128 6.365653 -8.640157 16.803638 1.656980 -1.999020 -10.023104 -3.340772 1.758825 14.178719 2.961693 -6.847048 16.368728 -22.487690 -33.569180 10.431197 -46.496509 -49.399400 25.942933 -4.359208 -65.682608 25.697803 -12.507959 -5.362332 14.463848 29.159387 29.638380 8.982232 29.797109 13.372405 9.406694 -8.572900 55.332971 11.672739 5.918724 7.245706 12.580355 
-12.936398 -66.317772 81.094223 -123.981036 0.065190 85.120194 30.833081 14.711365 1.560279 -13.177723 -1.355563 41.764621 -2.789821 10.440514 -37.549884 nan nan nan -22.823128 -14.816802 -31.643579 2.092382 -14.217671 52.692284 3.149323 -4.509599 -19.285651 nan nan nan -4.529410 -4.587102 11.943578 5.850578 -9.156667 15.911499 1.183278 -1.189248 -9.688537 -3.441168 2.030092 14.312914 3.302328 -6.691215 16.491625 -21.700759 -32.682097 9.665118 -46.100139 -49.897090 26.049585 -4.647096 -66.869581 25.485716 -12.151156 -5.781229 13.297850 29.491926 29.394053 9.161818 29.059791 13.692660 9.348766 -7.872076 57.657702 11.595091 6.446292 7.187228 11.435321 
-12.811028 -65.910080 81.212471 -123.891958 0.083328 85.464889 30.969568 14.867128 1.572619 -13.317569 -1.927038 40.948833 -2.590497 10.977966 -36.851189 nan nan nan -22.435559 -14.957234 -31.920967 2.524026 -13.932911 52.720040 2.961733 -5.015948 -19.671202 nan nan nan -5.074898 -3.149095 11.144963 6.808902 -8.453078 15.569869 2.166537 -2.297338 -8.306422 -4.335877 0.657454 13.727697 3.261647 -6.301613 16.416681 -22.635640 -34.402663 10.419787 -42.932906 -50.774381 23.296191 -5.491639 -67.923267 25.151847 -10.680276 -5.732722 11.699361 28.139319 29.204534 7.476724 26.972253 12.636139 8.036851 -3.886822 61.460817 14.707050 5.649915 6.096311 8.475454 
-12.668736 -65.417480 81.337776 -123.884466 0.016471 85.769611 31.080224 14.919647 1.782608 -13.096722 -2.102922 39.969928 -2.608382 10.938745 -36.104982 nan nan nan -22.085222 -14.866290 -32.163239 2.540682 -13.895938 52.873679 2.834295 -5.074497 -20.261008 nan nan nan -5.195062 -2.935751 11.172496 7.015869 -8.406916 15.103098 2.231524 -2.516765 -8.113819 -4.379370 0.631738 13.357832 3.135280 -6.354273 16.754962 -22.063509 -34.082425 9.802695 -42.542323 -51.592029 23.160612 -4.565391 -69.287767 23.904951 -10.770330 -5.714766 10.073747 27.574954 28.617456 6.935609 26.612722 12.867459 8.096938 -4.587845 64.398819 13.754497 4.951269 5.657291 6.353845 
-12.534136 -64.887169 81.506248 -123.922428 -0.015505 86.045874 31.216962 14.930811 2.088143 -12.761145 -2.209463 38.938501 -2.772469 10.836181 -35.328421 nan nan nan -21.751793 -14.703157 -32.237144 2.457454 -14.076115 52.929383 2.742685 -4.977635 -20.812372 nan nan nan -5.252278 -2.901273 11.055244 7.069009 -8.412529 15.160814 2.231565 -2.502867 -8.297762 -4.285302 0.773181 13.241562 3.084457 -6.494978 16.889381 -21.535129 -33.702951 9.172837 -42.081356 -52.477486 23.027628 -2.987701 -70.550221 22.281977 -11.457610 -6.040455 9.000940 27.126007 28.182038 6.552648 26.233651 13.024776 8.154261 -6.003613 67.181799 11.996824 5.474982 5.874102 4.868083 
-12.460343 -64.298973 81.728996 -123.906765 -0.081232 86.224139 31.315503 14.885041 2.608217 -12.406069 -2.282695 37.742158 -2.957318 10.752367 -34.461210 nan nan nan -21.495231 -14.630279 -32.049866 2.396874 -14.231069 52.890501 2.634808 -4.861925 -21.350383 nan nan nan -5.355162 -2.863182 11.028891 7.105069 -8.426159 14.979876 2.306226 -2.508285 -8.239168 -4.377055 0.785681 13.320506 3.179994 -6.501058 16.699670 -21.024019 -33.378418 8.589527 -41.583940 -53.256739 22.668548 -1.642866 -71.985069 20.604609 -11.828374 -6.059290 8.219906 26.594892 27.817620 6.042415 25.716536 13.066739 8.082613 -6.488966 70.060583 10.579882 6.731702 6.205984 3.146547 
-12.397786 -63.643993 81.984520 -123.841846 -0.108104 86.393475 31.432005 14.806993 3.173645 -12.010204 -2.328033 36.453548 -3.113377 10.693996 -33.524679 nan nan nan -21.110245 -14.558112 -31.870759 2.338107 -14.219445 52.888023 2.533091 -4.875667 -21.857408 nan nan nan -5.500210 -2.798654 11.072918 7.220353 -8.454454 14.308882 2.465079 -2.556331 -7.711181 -4.616221 0.732268 13.399208 3.339706 -6.404021 16.370772 -20.322821 -33.153819 7.951642 -41.145781 -53.767834 22.004947 -0.301212 -73.816619 18.622984 -11.956275 -5.906035 6.700153 25.894439 27.460278 5.380521 25.373167 13.234035 7.743469 -6.237151 72.852201 9.650763 8.143252 6.430045 0.992825 
-12.297024 -62.929455 82.252922 -123.751885 0.001265 86.614635 31.678301 14.721983 3.610923 -11.502264 -2.432506 35.173225 -3.298439 10.680198 -32.474736 nan nan nan -20.523347 -14.361318 -31.759909 2.247092 -14.276665 52.890702 2.470760 -4.989635 -22.305359 nan nan nan -5.577087 -2.795093 10.985943 7.397350 -8.473977 13.698009 2.605635 -2.553156 -7.177031 -4.757436 0.701541 13.377967 3.401020 -6.360333 16.306637 -19.603329 -32.876387 7.332033 -40.631783 -54.307172 21.258537 1.358852 -75.585586 16.431158 -11.917673 -6.072386 5.392764 25.237083 27.060210 4.834383 25.021550 13.673557 7.133945 -6.622752 75.231512 8.661662 9.187953 6.519051 -0.438472 
-12.177537 -62.185074 82.541725 -123.622387 0.172044 86.821614 31.961035 14.608705 3.962862 -10.966023 -2.677365 33.953551 -3.530292 10.778211 -31.225136 nan nan nan -19.807793 -14.049717 -31.620668 2.125236 -14.356270 52.807325 2.297617 -5.328536 -22.843692 nan nan nan -5.533235 -2.780354 10.947681 7.598051 -8.499438 13.093861 2.678528 -2.585535 -6.815671 -4.907874 0.590512 13.389360 3.494454 -6.314019 16.399099 -19.153939 -32.477518 6.916049 -39.800523 -55.057400 20.342747 2.790258 -77.137055 14.769805 -11.795677 -6.242465 4.862029 24.724291 26.434543 4.290649 24.594399 14.231382 6.250522 -7.433524 77.526085 7.904172 9.933343 6.101897 -0.757685 
-12.085624 -61.404732 82.865356 -123.516348 0.259164 86.892925 32.122872 14.380784 4.489712 -10.368901 -2.837121 32.723733 -3.714547 10.920619 -29.737028 nan nan nan -19.194746 -13.659467 -31.303180 2.007149 -14.432167 52.675271 2.091621 -5.686613 -23.366403 nan nan nan -5.582105 -2.786819 11.091548 7.692615 -8.465398 12.588095 2.783341 -2.653047 -6.732033 -4.752375 0.589241 13.688376 3.447502 -6.440138 16.284067 -18.574538 -32.087760 6.442417 -39.242572 -55.667833 19.779918 6.329411 -78.615208 11.094869 -11.768445 -6.370250 4.121618 24.025271 26.182161 3.739402 24.767084 14.354121 6.356705 -14.218150 79.588130 1.369752 10.626327 5.871399 -2.279160 
-12.009691 -60.600838 83.191086 -123.378325 0.294887 86.935762 32.163923 14.100518 4.986758 -9.649376 -2.794215 31.550006 -3.910113 11.061190 -28.170234 nan nan nan -18.663646 -13.271352 -30.952805 1.812208 -14.555370 52.589390 1.929161 -5.961608 -23.839398 nan nan nan -5.743556 -2.904939 11.310963 7.760958 -8.456234 11.831061 2.916921 -2.698423 -6.447657 -4.737000 0.579577 13.997027 3.524383 -6.455772 16.081633 -17.778839 -31.604447 5.725552 -39.146392 -56.097854 19.466364 11.511795 -79.970731 5.752731 -11.521524 -6.622969 2.885983 23.247869 25.889648 3.202351 25.065674 14.746376 6.309601 -21.176933 81.484615 -6.055771 11.299308 6.255592 -4.121586 
-11.917180 -59.762909 83.512527 -123.164361 0.333541 87.068196 32.129320 13.784574 5.216647 -8.819194 -2.570805 30.532983 -4.207263 11.229647 -26.483752 nan nan nan -18.117304 -12.880000 -30.678750 1.524299 -14.797074 52.527704 1.720534 -6.200099 -24.295802 nan nan nan -6.005636 -3.023984 11.323262 7.847289 -8.547590 11.274580 3.081673 -2.712143 -6.185073 -4.688588 0.634941 14.188114 3.788831 -6.573880 15.946845 -16.876623 -31.147931 4.906810 -39.288505 -56.491819 19.223882 18.349816 -81.105953 -1.099035 -11.674903 -6.845999 1.959161 22.578017 25.671774 2.804556 25.011173 15.260945 5.894670 -31.589595 83.149321 -17.223470 12.468691 7.287204 -5.052964 
-11.793633 -58.902847 83.847145 -122.900858 0.360307 87.237901 32.002722 13.429173 5.160493 -7.964259 -2.314478 29.876866 -4.480720 11.605532 -24.619798 nan nan nan -17.524841 -12.579564 -30.428228 1.300699 -14.994799 52.396481 1.413245 -6.496149 -24.708354 nan nan nan -6.334601 -3.005795 11.168681 7.906736 -8.679444 10.951654 3.308147 -2.692979 -5.957536 -4.520283 0.513519 14.375533 4.159640 -6.783506 15.839755 -16.121670 -30.971558 4.309443 -39.005679 -57.003406 18.429018 25.836357 -82.090860 -8.582453 -12.335498 -6.915044 1.655915 21.977011 25.548272 2.549998 24.424876 15.652596 4.965927 -47.317592 84.289932 -33.561210 14.646235 7.942170 -5.049459 
